<svg width="386" height="386" viewBox="0 0 386 386" fill="none" xmlns="http://www.w3.org/2000/svg">
<path d="M2.24815 235.189L187.842 194.033C188.91 193.796 188.877 192.262 187.799 192.072L0.595919 158.998L187.813 191.998C188.89 192.188 189.446 190.758 188.524 190.17L28.2269 87.9751L188.564 190.108C189.486 190.695 190.547 189.587 189.92 188.691L80.9332 32.9317L189.981 188.647C190.609 189.544 192.013 188.926 191.777 187.858L150.692 2.24819L191.849 187.842C192.086 188.91 193.619 188.877 193.81 187.799L226.884 0.59611L193.883 187.813C193.694 188.89 195.123 189.446 195.712 188.524L297.906 28.2272L195.774 188.564C195.186 189.486 196.294 190.547 197.19 189.92L352.95 80.9332L197.234 189.981C196.338 190.609 196.955 192.013 198.024 191.777L383.633 150.692L198.039 191.849C196.971 192.086 197.005 193.619 198.082 193.81L385.285 226.884L198.069 193.884C196.991 193.694 196.435 195.123 197.357 195.712L357.654 297.907L197.318 195.774C196.395 195.186 195.334 196.294 195.961 197.191L304.948 352.95L195.9 197.234C195.272 196.338 193.868 196.955 194.104 198.024L235.189 383.633L194.033 198.04C193.796 196.971 192.262 197.005 192.072 198.082L158.998 385.285L191.998 198.069C192.188 196.991 190.758 196.435 190.17 197.357L87.9747 357.655L190.108 197.318C190.695 196.395 189.587 195.334 188.691 195.961L32.9315 304.948L188.647 195.9C189.544 195.272 188.926 193.868 187.858 194.105L2.24815 235.189Z" stroke="black" stroke-width="4"/>
</svg>
